<svg xmlns="http://www.w3.org/2000/svg"
    viewBox="0 0 1229.52 141.65">
    <g>
        <path
            d="M62.48 32.81h20v79.69h-20v-8.42c-3.9 3.71-7.82 6.38-11.74 8.02-3.93 1.63-8.18 2.45-12.77 2.45-10.29 0-19.19-3.99-26.7-11.97S0 84.67 0 72.8s3.63-22.39 10.9-30.25c7.27-7.86 16.09-11.79 26.48-11.79 4.78 0 9.27.9 13.46 2.71 4.19 1.81 8.07 4.52 11.63 8.13v-8.79ZM41.46 49.22c-6.18 0-11.31 2.19-15.4 6.56-4.09 4.37-6.13 9.97-6.13 16.81s2.08 12.55 6.24 16.99c4.16 4.44 9.28 6.66 15.37 6.66s11.49-2.18 15.62-6.55c4.14-4.37 6.21-10.09 6.21-17.18s-2.07-12.55-6.21-16.85c-4.14-4.3-9.37-6.45-15.69-6.45ZM102.69 32.81h20v8.17c4.53-3.82 8.64-6.48 12.32-7.98 3.68-1.49 7.45-2.24 11.3-2.24 7.9 0 14.6 2.76 20.11 8.28 4.63 4.69 6.95 11.62 6.95 20.8v52.66h-19.78V77.6c0-9.51-.43-15.82-1.28-18.95s-2.34-5.5-4.46-7.13-4.74-2.45-7.85-2.45c-4.04 0-7.51 1.35-10.41 4.06-2.9 2.71-4.91 6.45-6.03 11.23-.58 2.49-.88 7.88-.88 16.17v31.97h-20V32.81ZM200.5 0c3.51 0 6.51 1.27 9.02 3.81s3.76 5.62 3.76 9.23-1.24 6.6-3.73 9.12c-2.48 2.52-5.45 3.77-8.91 3.77s-6.59-1.28-9.09-3.85c-2.51-2.56-3.76-5.68-3.76-9.34s1.24-6.52 3.72-9.01c2.48-2.49 5.48-3.74 8.98-3.74Zm-10 32.81h20v79.69h-20V32.81ZM228.52 32.81h19.99v9.16c3.42-3.76 7.22-6.57 11.4-8.42 4.18-1.85 8.73-2.78 13.67-2.78s9.48 1.22 13.48 3.66c4.01 2.44 7.23 6.01 9.68 10.69 3.18-4.69 7.07-8.25 11.69-10.69 4.62-2.44 9.66-3.66 15.14-3.66s10.65 1.32 14.95 3.96c4.3 2.64 7.39 6.08 9.27 10.33s2.82 11.16 2.82 20.73v46.73h-20.14V72.09c0-9.03-1.12-15.15-3.37-18.35-2.25-3.2-5.62-4.8-10.11-4.8-3.42 0-6.48.98-9.19 2.93-2.71 1.95-4.72 4.65-6.04 8.09s-1.98 8.97-1.98 16.59v35.96h-20.14v-38.6c0-7.13-.53-12.29-1.58-15.49-1.05-3.2-2.63-5.58-4.74-7.14-2.1-1.56-4.65-2.34-7.63-2.34-3.33 0-6.35.99-9.07 2.97s-4.75 4.75-6.09 8.31c-1.35 3.56-2.02 9.18-2.02 16.85v35.45h-19.99V32.81ZM449.49 78.44h-64.23c.93 5.67 3.41 10.17 7.43 13.51 4.03 3.34 9.17 5.02 15.42 5.02 7.47 0 13.89-2.61 19.26-7.84l16.85 7.91c-4.2 5.96-9.23 10.36-15.09 13.22s-12.82 4.28-20.87 4.28c-12.5 0-22.68-3.94-30.54-11.83-7.86-7.88-11.79-17.76-11.79-29.63s3.92-22.25 11.75-30.29c7.84-8.03 17.66-12.05 29.48-12.05 12.55 0 22.75 4.02 30.62 12.05 7.86 8.03 11.79 18.64 11.79 31.82l-.07 3.81Zm-20-15.74c-1.32-4.44-3.93-8.06-7.81-10.84s-8.4-4.17-13.54-4.17c-5.58 0-10.47 1.56-14.67 4.69-2.64 1.95-5.09 5.4-7.34 10.33h43.36ZM485.52 2.05V41.6c3.61-3.61 7.52-6.32 11.72-8.13 4.2-1.81 8.69-2.71 13.48-2.71 10.4 0 19.24 3.93 26.51 11.79 7.28 7.86 10.91 17.94 10.91 30.25s-3.76 21.79-11.28 29.77-16.43 11.97-26.73 11.97c-4.59 0-8.86-.82-12.82-2.45s-7.89-4.31-11.79-8.02v8.42h-19.85V2.05h19.85Zm21.02 47.17c-6.3 0-11.52 2.15-15.67 6.45-4.15 4.3-6.23 9.91-6.23 16.85s2.08 12.81 6.23 17.18c4.15 4.37 9.38 6.55 15.67 6.55s11.24-2.22 15.42-6.66c4.17-4.44 6.26-10.11 6.26-16.99s-2.05-12.44-6.15-16.81c-4.1-4.37-9.28-6.56-15.53-6.56ZM555.86 32.81h20.43l20.7 50 22.84-50h20.49l-49.91 108.84h-20.65l16.38-35.1-30.29-73.74ZM654.13 3.44h20v29.37H686v17.21h-11.87v62.48h-20V50.02h-10.25V32.81h10.25V3.44ZM776.51 78.44h-64.23c.93 5.67 3.41 10.17 7.43 13.51 4.03 3.34 9.17 5.02 15.42 5.02 7.47 0 13.89-2.61 19.26-7.84l16.85 7.91c-4.2 5.96-9.23 10.36-15.09 13.22s-12.82 4.28-20.87 4.28c-12.5 0-22.68-3.94-30.54-11.83-7.86-7.88-11.79-17.76-11.79-29.63s3.92-22.25 11.75-30.29c7.84-8.03 17.66-12.05 29.48-12.05 12.55 0 22.75 4.02 30.62 12.05 7.86 8.03 11.79 18.64 11.79 31.82l-.07 3.81ZM756.52 62.7c-1.32-4.44-3.93-8.06-7.81-10.84s-8.4-4.17-13.54-4.17c-5.58 0-10.47 1.56-14.67 4.69-2.64 1.95-5.09 5.4-7.34 10.33h43.36ZM841.48 43.95 829.1 56.33c-5.03-4.98-9.59-7.47-13.7-7.47-2.25 0-4 .48-5.27 1.43-1.27.95-1.9 2.14-1.9 3.55 0 1.07.4 2.06 1.21 2.97.8.9 2.79 2.14 5.97 3.7l7.32 3.66c7.71 3.81 13.01 7.69 15.89 11.65 2.88 3.96 4.32 8.59 4.32 13.92 0 7.08-2.6 12.99-7.8 17.72-5.2 4.74-12.17 7.1-20.91 7.1-11.62 0-20.9-4.54-27.83-13.62l12.3-13.4c2.34 2.73 5.09 4.94 8.24 6.63 3.15 1.68 5.94 2.53 8.39 2.53 2.64 0 4.76-.63 6.37-1.9 1.61-1.27 2.42-2.73 2.42-4.39 0-3.08-2.91-6.08-8.72-9.01l-6.74-3.37c-12.89-6.49-19.34-14.62-19.34-24.39 0-6.3 2.43-11.68 7.29-16.15s11.07-6.7 18.64-6.7c5.17 0 10.05 1.14 14.61 3.41s8.43 5.53 11.61 9.78Z"
            class="absuite-logo-left" />
        <path
            d="m959.4 19.41-15.19 13.4c-5.33-7.42-10.76-11.13-16.29-11.13-2.69 0-4.89.72-6.6 2.16-1.71 1.44-2.57 3.06-2.57 4.87s.61 3.52 1.83 5.13c1.66 2.15 6.68 6.76 15.04 13.84 7.83 6.54 12.57 10.67 14.23 12.38 4.16 4.2 7.1 8.22 8.84 12.05 1.74 3.83 2.6 8.02 2.6 12.56 0 8.84-3.06 16.14-9.17 21.9-6.11 5.76-14.08 8.64-23.9 8.64-7.67 0-14.36-1.88-20.05-5.64-5.69-3.76-10.57-9.67-14.63-17.72l17.24-10.4c5.18 9.52 11.15 14.28 17.9 14.28 3.52 0 6.48-1.03 8.88-3.08s3.59-4.42 3.59-7.1c0-2.44-.91-4.88-2.71-7.32-1.81-2.44-5.8-6.18-11.96-11.21-11.74-9.57-19.32-16.96-22.75-22.16s-5.13-10.39-5.13-15.56c0-7.47 2.85-13.88 8.54-19.23 5.69-5.35 12.72-8.02 21.08-8.02 5.38 0 10.5 1.25 15.36 3.74 4.86 2.49 10.13 7.03 15.8 13.62ZM978.59 32.81h20.21v38.38c0 7.47.51 12.66 1.54 15.56 1.03 2.91 2.68 5.16 4.96 6.78 2.28 1.61 5.08 2.42 8.41 2.42s6.15-.79 8.48-2.38c2.33-1.59 4.05-3.92 5.18-6.99.83-2.29 1.25-7.2 1.25-14.72V32.82h20v33.76c0 13.92-1.1 23.44-3.3 28.56-2.69 6.25-6.64 11.05-11.87 14.39-5.23 3.34-11.87 5.02-19.92 5.02-8.74 0-15.81-1.95-21.2-5.86-5.4-3.91-9.19-9.35-11.39-16.33-1.56-4.83-2.34-13.62-2.34-26.37V32.81ZM1076.48 0c3.5 0 6.51 1.27 9.02 3.81s3.76 5.62 3.76 9.23-1.24 6.6-3.72 9.12c-2.48 2.52-5.45 3.77-8.91 3.77s-6.59-1.28-9.09-3.85c-2.51-2.56-3.76-5.68-3.76-9.34s1.24-6.52 3.72-9.01 5.48-3.74 8.98-3.74Zm-10 32.81h20v79.69h-20V32.81ZM1107.06 3.44h20v29.37h11.87v17.21h-11.87v62.48h-20V50.02h-10.25V32.81h10.25V3.44ZM1229.44 78.44h-64.23c.93 5.67 3.41 10.17 7.43 13.51 4.03 3.34 9.17 5.02 15.42 5.02 7.47 0 13.89-2.61 19.26-7.84l16.85 7.91c-4.2 5.96-9.23 10.36-15.09 13.22s-12.82 4.28-20.87 4.28c-12.5 0-22.68-3.94-30.54-11.83-7.86-7.88-11.79-17.76-11.79-29.63s3.92-22.25 11.75-30.29c7.84-8.03 17.66-12.05 29.48-12.05 12.55 0 22.75 4.02 30.62 12.05 7.86 8.03 11.79 18.64 11.79 31.82l-.07 3.81Zm-19.99-15.74c-1.32-4.44-3.93-8.06-7.81-10.84s-8.4-4.17-13.54-4.17c-5.58 0-10.47 1.56-14.67 4.69-2.64 1.95-5.09 5.4-7.34 10.33h43.36Z"
            class="absuite-logo-right" />
    </g>
</svg>